<svg width="24" height="24" viewBox="0 0 24 24" fill="none" xmlns="http://www.w3.org/2000/svg">
    <path fill-rule="evenodd" clip-rule="evenodd" d="M12 5.45455C8.38505 5.45455 5.45455 8.38505 5.45455 12C5.45455 15.615 8.38505 18.5455 12 18.5455C15.615 18.5455 18.5455 15.615 18.5455 12C18.5455 8.38505 15.615 5.45455 12 5.45455ZM4 12C4 7.58172 7.58172 4 12 4C16.4183 4 20 7.58172 20 12C20 16.4183 16.4183 20 12 20C7.58172 20 4 16.4183 4 12Z" fill="#B6ADC8"/>
    <path fill-rule="evenodd" clip-rule="evenodd" d="M12 6.90909C12.4017 6.90909 12.7273 7.2347 12.7273 7.63636V11.5505L15.2343 12.8041C15.5936 12.9837 15.7392 13.4205 15.5596 13.7798C15.38 14.139 14.9431 14.2847 14.5838 14.105L11.6748 12.6505C11.4284 12.5273 11.2727 12.2755 11.2727 12V7.63636C11.2727 7.2347 11.5983 6.90909 12 6.90909Z" fill="#B6ADC8"/>
</svg>
