<svg width="24" height="24" viewBox="0 0 24 24" fill="none" xmlns="http://www.w3.org/2000/svg">
    <path fill-rule="evenodd" clip-rule="evenodd" d="M3.26629 3.26627C3.50284 3.02971 3.83734 2.95077 4.13925 3.02946L17.3042 6.20722C17.6483 6.29028 17.9129 6.56553 17.9823 6.91264L19.0306 12.1539C19.357 12.0256 19.7426 12.0933 20.0065 12.3572L22.7337 15.0844C23.0888 15.4395 23.0888 16.0151 22.7337 16.3701L16.3701 22.7337C16.0151 23.0888 15.4395 23.0888 15.0845 22.7337L12.3572 20.0065C12.0934 19.7426 12.0256 19.357 12.1539 19.0306L6.91264 17.9824C6.56552 17.9129 6.29027 17.6483 6.20721 17.3042L3.02912 4.13783C3.01617 4.08781 3.00754 4.0369 3.00323 3.9857C2.99917 3.93771 2.99896 3.88974 3.00247 3.84221C3.01786 3.63232 3.1058 3.42676 3.26629 3.26627ZM9.62944 10.9151L5.55093 6.83656L7.83843 16.3133L13.6103 17.4677L17.4677 13.6103L16.3133 7.83843L6.83661 5.55095L10.9151 9.62943C11.2711 9.45905 11.6699 9.36364 12.0909 9.36364C13.5972 9.36364 14.8182 10.5847 14.8182 12.0909C14.8182 13.5971 13.5972 14.8182 12.0909 14.8182C10.5847 14.8182 9.36365 13.5971 9.36365 12.0909C9.36365 11.6699 9.45906 11.2711 9.62944 10.9151ZM11.4369 11.4594C11.279 11.623 11.1818 11.8456 11.1818 12.0909C11.1818 12.593 11.5888 13 12.0909 13C12.593 13 13 12.593 13 12.0909C13 11.5888 12.593 11.1818 12.0909 11.1818C11.8456 11.1818 11.623 11.279 11.4595 11.4369C11.4558 11.4407 11.4521 11.4445 11.4483 11.4483C11.4445 11.452 11.4407 11.4558 11.4369 11.4594ZM19.1007 14.5486L19.0974 14.5519L14.5519 19.0974L14.5486 19.1007L14.2857 19.3636L15.7273 20.8053L20.8053 15.7273L19.3636 14.2856L19.1007 14.5486Z" fill="url(#paint0_linear_169_2084)"/>
    <path fill-rule="evenodd" clip-rule="evenodd" d="M3.26629 3.26627C3.50284 3.02971 3.83734 2.95077 4.13925 3.02946L17.3042 6.20722C17.6483 6.29028 17.9129 6.56553 17.9823 6.91264L19.0306 12.1539C19.357 12.0256 19.7426 12.0933 20.0065 12.3572L22.7337 15.0844C23.0888 15.4395 23.0888 16.0151 22.7337 16.3701L16.3701 22.7337C16.0151 23.0888 15.4395 23.0888 15.0845 22.7337L12.3572 20.0065C12.0934 19.7426 12.0256 19.357 12.1539 19.0306L6.91264 17.9824C6.56552 17.9129 6.29027 17.6483 6.20721 17.3042L3.02912 4.13783C3.01617 4.08781 3.00754 4.0369 3.00323 3.9857C2.99917 3.93771 2.99896 3.88974 3.00247 3.84221C3.01786 3.63232 3.1058 3.42676 3.26629 3.26627ZM9.62944 10.9151L5.55093 6.83656L7.83843 16.3133L13.6103 17.4677L17.4677 13.6103L16.3133 7.83843L6.83661 5.55095L10.9151 9.62943C11.2711 9.45905 11.6699 9.36364 12.0909 9.36364C13.5972 9.36364 14.8182 10.5847 14.8182 12.0909C14.8182 13.5971 13.5972 14.8182 12.0909 14.8182C10.5847 14.8182 9.36365 13.5971 9.36365 12.0909C9.36365 11.6699 9.45906 11.2711 9.62944 10.9151ZM11.4369 11.4594C11.279 11.623 11.1818 11.8456 11.1818 12.0909C11.1818 12.593 11.5888 13 12.0909 13C12.593 13 13 12.593 13 12.0909C13 11.5888 12.593 11.1818 12.0909 11.1818C11.8456 11.1818 11.623 11.279 11.4595 11.4369C11.4558 11.4407 11.4521 11.4445 11.4483 11.4483C11.4445 11.452 11.4407 11.4558 11.4369 11.4594ZM19.1007 14.5486L19.0974 14.5519L14.5519 19.0974L14.5486 19.1007L14.2857 19.3636L15.7273 20.8053L20.8053 15.7273L19.3636 14.2856L19.1007 14.5486Z" fill="white" fill-opacity="0.2"/>
    <defs>
        <linearGradient id="paint0_linear_169_2084" x1="13" y1="3" x2="13" y2="23" gradientUnits="userSpaceOnUse">
            <stop stop-color="#7E3DFF"/>
            <stop offset="1" stop-color="#DF3DFF"/>
        </linearGradient>
    </defs>
</svg>
