<svg xmlns="http://www.w3.org/2000/svg" width="32" height="36" fill="none"><path fill="url(#a)" d="M10.56 8.923c.421-1.439 2.459-1.439 2.88 0l1.045 3.573a1.5 1.5 0 0 0 1.019 1.02l3.573 1.044c1.439.421 1.439 2.459 0 2.88l-3.574 1.045a1.5 1.5 0 0 0-1.018 1.018l-1.045 3.574c-.421 1.439-2.459 1.439-2.88 0l-1.045-3.574a1.5 1.5 0 0 0-1.018-1.018L4.923 17.44c-1.439-.421-1.439-2.459 0-2.88l3.574-1.045a1.5 1.5 0 0 0 1.018-1.019l1.045-3.573Z"/><path fill="#fff" fill-opacity=".2" d="M10.56 8.923c.421-1.439 2.459-1.439 2.88 0l1.045 3.573a1.5 1.5 0 0 0 1.019 1.02l3.573 1.044c1.439.421 1.439 2.459 0 2.88l-3.574 1.045a1.5 1.5 0 0 0-1.018 1.018l-1.045 3.574c-.421 1.439-2.459 1.439-2.88 0l-1.045-3.574a1.5 1.5 0 0 0-1.018-1.018L4.923 17.44c-1.439-.421-1.439-2.459 0-2.88l3.574-1.045a1.5 1.5 0 0 0 1.018-1.019l1.045-3.573Z"/><path fill="url(#b)" d="M10.56 8.923c.421-1.439 2.459-1.439 2.88 0l1.045 3.573a1.5 1.5 0 0 0 1.019 1.02l3.573 1.044c1.439.421 1.439 2.459 0 2.88l-3.574 1.045a1.5 1.5 0 0 0-1.018 1.018l-1.045 3.574c-.421 1.439-2.459 1.439-2.88 0l-1.045-3.574a1.5 1.5 0 0 0-1.018-1.018L4.923 17.44c-1.439-.421-1.439-2.459 0-2.88l3.574-1.045a1.5 1.5 0 0 0 1.018-1.019l1.045-3.573Z"/><path fill="url(#c)" fill-opacity=".3" d="M10.56 8.923c.421-1.439 2.459-1.439 2.88 0l1.045 3.573a1.5 1.5 0 0 0 1.019 1.02l3.573 1.044c1.439.421 1.439 2.459 0 2.88l-3.574 1.045a1.5 1.5 0 0 0-1.018 1.018l-1.045 3.574c-.421 1.439-2.459 1.439-2.88 0l-1.045-3.574a1.5 1.5 0 0 0-1.018-1.018L4.923 17.44c-1.439-.421-1.439-2.459 0-2.88l3.574-1.045a1.5 1.5 0 0 0 1.018-1.019l1.045-3.573Z"/><path fill="url(#d)" d="M23.424 25.97c.168-.576.984-.576 1.152 0l.69 2.357a.6.6 0 0 0 .407.408l2.358.69c.575.167.575.983 0 1.15l-2.358.69a.6.6 0 0 0-.408.408l-.69 2.358c-.167.575-.983.575-1.15 0l-.69-2.358a.6.6 0 0 0-.408-.408l-2.358-.69c-.575-.167-.575-.983 0-1.15l2.358-.69a.6.6 0 0 0 .408-.408l.69-2.358Z"/><path fill="#fff" fill-opacity=".2" d="M23.424 25.97c.168-.576.984-.576 1.152 0l.69 2.357a.6.6 0 0 0 .407.408l2.358.69c.575.167.575.983 0 1.15l-2.358.69a.6.6 0 0 0-.408.408l-.69 2.358c-.167.575-.983.575-1.15 0l-.69-2.358a.6.6 0 0 0-.408-.408l-2.358-.69c-.575-.167-.575-.983 0-1.15l2.358-.69a.6.6 0 0 0 .408-.408l.69-2.358Z"/><path fill="url(#e)" d="M23.424 25.97c.168-.576.984-.576 1.152 0l.69 2.357a.6.6 0 0 0 .407.408l2.358.69c.575.167.575.983 0 1.15l-2.358.69a.6.6 0 0 0-.408.408l-.69 2.358c-.167.575-.983.575-1.15 0l-.69-2.358a.6.6 0 0 0-.408-.408l-2.358-.69c-.575-.167-.575-.983 0-1.15l2.358-.69a.6.6 0 0 0 .408-.408l.69-2.358Z"/><path fill="url(#f)" fill-opacity=".3" d="M23.424 25.97c.168-.576.984-.576 1.152 0l.69 2.357a.6.6 0 0 0 .407.408l2.358.69c.575.167.575.983 0 1.15l-2.358.69a.6.6 0 0 0-.408.408l-.69 2.358c-.167.575-.983.575-1.15 0l-.69-2.358a.6.6 0 0 0-.408-.408l-2.358-.69c-.575-.167-.575-.983 0-1.15l2.358-.69a.6.6 0 0 0 .408-.408l.69-2.358Z"/><path fill="url(#g)" d="M26.424 1.97c.168-.576.984-.576 1.152 0l.463 1.583a.6.6 0 0 0 .408.408l1.584.463c.575.168.575.984 0 1.152l-1.584.463a.6.6 0 0 0-.408.408l-.463 1.584c-.168.575-.984.575-1.152 0l-.463-1.584a.6.6 0 0 0-.408-.408l-1.584-.463c-.575-.168-.575-.984 0-1.152l1.584-.463a.6.6 0 0 0 .408-.408l.463-1.584Z"/><path fill="#fff" fill-opacity=".2" d="M26.424 1.97c.168-.576.984-.576 1.152 0l.463 1.583a.6.6 0 0 0 .408.408l1.584.463c.575.168.575.984 0 1.152l-1.584.463a.6.6 0 0 0-.408.408l-.463 1.584c-.168.575-.984.575-1.152 0l-.463-1.584a.6.6 0 0 0-.408-.408l-1.584-.463c-.575-.168-.575-.984 0-1.152l1.584-.463a.6.6 0 0 0 .408-.408l.463-1.584Z"/><path fill="url(#h)" d="M26.424 1.97c.168-.576.984-.576 1.152 0l.463 1.583a.6.6 0 0 0 .408.408l1.584.463c.575.168.575.984 0 1.152l-1.584.463a.6.6 0 0 0-.408.408l-.463 1.584c-.168.575-.984.575-1.152 0l-.463-1.584a.6.6 0 0 0-.408-.408l-1.584-.463c-.575-.168-.575-.984 0-1.152l1.584-.463a.6.6 0 0 0 .408-.408l.463-1.584Z"/><path fill="url(#i)" fill-opacity=".3" d="M26.424 1.97c.168-.576.984-.576 1.152 0l.463 1.583a.6.6 0 0 0 .408.408l1.584.463c.575.168.575.984 0 1.152l-1.584.463a.6.6 0 0 0-.408.408l-.463 1.584c-.168.575-.984.575-1.152 0l-.463-1.584a.6.6 0 0 0-.408-.408l-1.584-.463c-.575-.168-.575-.984 0-1.152l1.584-.463a.6.6 0 0 0 .408-.408l.463-1.584Z"/><defs><linearGradient id="a" x1="12" x2="21.231" y1="9.077" y2="34" gradientUnits="userSpaceOnUse"><stop stop-color="#9467F6"/><stop offset="1" stop-color="#F580FF"/></linearGradient><linearGradient id="c" x1="12" x2="12" y1="4" y2="28" gradientUnits="userSpaceOnUse"><stop stop-color="#fff"/><stop offset="1" stop-color="#fff" stop-opacity="0"/></linearGradient><linearGradient id="d" x1="24" x2="28.615" y1="26.538" y2="39" gradientUnits="userSpaceOnUse"><stop stop-color="#9467F6"/><stop offset="1" stop-color="#F580FF"/></linearGradient><linearGradient id="f" x1="24" x2="24" y1="24" y2="36" gradientUnits="userSpaceOnUse"><stop stop-color="#fff"/><stop offset="1" stop-color="#fff" stop-opacity="0"/></linearGradient><linearGradient id="g" x1="27" x2="30.846" y1="2.115" y2="12.5" gradientUnits="userSpaceOnUse"><stop stop-color="#9467F6"/><stop offset="1" stop-color="#F580FF"/></linearGradient><linearGradient id="i" x1="27" x2="27" y1="0" y2="10" gradientUnits="userSpaceOnUse"><stop stop-color="#fff"/><stop offset="1" stop-color="#fff" stop-opacity="0"/></linearGradient><radialGradient id="b" cx="0" cy="0" r="1" gradientTransform="rotate(16.084 -.903 -144.582) scale(62.0185)" gradientUnits="userSpaceOnUse"><stop stop-color="#3DB9FF"/><stop offset="1" stop-color="#3DB9FF" stop-opacity="0"/></radialGradient><radialGradient id="e" cx="0" cy="0" r="1" gradientTransform="rotate(16.084 -69.308 2.41) scale(31.0092)" gradientUnits="userSpaceOnUse"><stop stop-color="#3DB9FF"/><stop offset="1" stop-color="#3DB9FF" stop-opacity="0"/></radialGradient><radialGradient id="h" cx="0" cy="0" r="1" gradientTransform="rotate(16.084 16.522 16.78) scale(25.841)" gradientUnits="userSpaceOnUse"><stop stop-color="#3DB9FF"/><stop offset="1" stop-color="#3DB9FF" stop-opacity="0"/></radialGradient></defs></svg>